<?xml version="1.0" standalone="no"?>
<!DOCTYPE svg PUBLIC "-//W3C//DTD SVG 20010904//EN"
 "http://www.w3.org/TR/2001/REC-SVG-20010904/DTD/svg10.dtd">
<svg version="1.0" xmlns="http://www.w3.org/2000/svg"
 width="260.000000pt" height="260.000000pt" viewBox="0 0 260.000000 260.000000"
 preserveAspectRatio="xMidYMid meet">
<metadata>
Created by potrace 1.11, written by Peter Selinger 2001-2013
</metadata>
<g transform="translate(0.000000,260.000000) scale(0.100000,-0.100000)"
fill="#000000" stroke="none">
<path d="M1310 2285 c-8 -2 -55 -9 -105 -15 -195 -25 -457 -103 -588 -174 -55
-29 -58 -33 -53 -61 10 -49 63 -149 104 -196 l39 -43 39 32 c60 48 365 184
380 170 2 -2 -12 -27 -31 -56 -130 -192 -377 -736 -571 -1255 l-74 -198 30
-43 c69 -102 213 -193 365 -232 111 -28 322 -24 446 9 318 84 573 267 688 493
103 204 74 393 -86 550 l-62 62 57 37 c127 85 226 218 253 345 6 29 9 94 7
144 -5 118 -35 185 -116 264 -71 70 -130 103 -247 138 -81 24 -108 27 -275 30
-102 1 -192 1 -200 -1z m569 -213 c81 -32 119 -62 146 -116 82 -164 -37 -348
-293 -452 -117 -47 -169 -56 -313 -55 -75 1 -167 -3 -204 -9 -37 -6 -69 -9
-70 -8 -6 5 201 421 254 513 44 75 51 93 41 108 -6 11 -10 21 -8 23 14 13 133
22 253 20 113 -2 150 -7 194 -24z m-107 -827 c117 -88 129 -278 28 -433 -150
-233 -469 -382 -816 -382 -108 0 -201 20 -211 46 -11 30 118 383 252 687 l47
107 34 -30 c19 -16 47 -32 62 -36 15 -3 33 -7 40 -10 7 -2 72 1 144 7 127 9
238 31 323 63 53 19 46 21 97 -19z"/>
</g>
</svg>
